<?xml version="1.0" encoding="iso-8859-1"?>
<!-- Generator: Adobe Illustrator 16.0.0, SVG Export Plug-In . SVG Version: 6.00 Build 0)  -->
<!DOCTYPE svg PUBLIC "-//W3C//DTD SVG 1.1//EN" "http://www.w3.org/Graphics/SVG/1.1/DTD/svg11.dtd">
<svg version="1.1" id="Layer_1" xmlns="http://www.w3.org/2000/svg" xmlns:xlink="http://www.w3.org/1999/xlink" x="0px" y="0px"
	 width="382.016px" height="422.474px" viewBox="0 0 382.016 422.474" style="enable-background:new 0 0 382.016 422.474;"
	 xml:space="preserve">
<path style="fill-rule:evenodd;clip-rule:evenodd;fill:none;" d="M153.175,8.553c65.689-40.062,72.654,74.258,75.712,62.735
	c15.39,0.226,24.838-48.007,36.111-48.611c88.043,48.837,96.798,327.545,88.889,319.444
	c-6.232-27.697-46.472-134.058-90.289-134.667c-13.14,0.688-26.293,24.767-33.6,38c-12.577,24.759-26.738,95.44-40,96
	c-11.263,0.44-26.149-70.94-38.4-97c-8.827-18.776-23.66-36.391-37.6-37c-32.995,1.359-86.611,100.888-88,134
	c-12.016,13.384,1.5-269.94,86.222-318.778c14.049,0.604,20.092,48.837,40.38,49.192C162.156,23.292,183.474,66.592,153.175,8.553z"
	/>
<path style="fill-rule:evenodd;clip-rule:evenodd;" d="M149.803,50.959c75.143-44.595,83.109,82.663,86.608,69.835
	c17.604,0.252,28.413-53.441,41.308-54.113c100.714,54.365,110.728,364.617,101.681,355.599
	c-7.129-30.832-53.16-149.23-103.283-149.908c-15.03,0.765-30.078,27.57-38.436,42.301
	c-14.387,27.561-30.585,106.242-45.756,106.865c-12.883,0.49-29.912-78.969-43.926-107.978
	c-10.098-20.902-27.065-40.51-43.011-41.188C67.245,273.885,5.913,384.679,4.324,421.539
	C-9.42,436.438,6.041,121.047,102.955,66.682c16.071,0.672,22.983,54.365,46.191,54.76
	C160.076,67.368,184.462,115.567,149.803,50.959z"/>
</svg>
